<svg width="17" height="17" viewBox="0 0 17 17" fill="none" xmlns="http://www.w3.org/2000/svg">
<path fill-rule="evenodd" clip-rule="evenodd" d="M12.1111 3.36842V2.57895C12.1111 2.16018 11.9589 1.75857 11.688 1.46246C11.4172 1.16635 11.0498 1 10.6667 1H6.33333C5.95024 1 5.58284 1.16635 5.31196 1.46246C5.04107 1.75857 4.88889 2.16018 4.88889 2.57895V3.36842H2.72222C2.53068 3.36842 2.34698 3.4516 2.21153 3.59965C2.07609 3.74771 2 3.94851 2 4.15789C2 4.36728 2.07609 4.56808 2.21153 4.71614C2.34698 4.86419 2.53068 4.94737 2.72222 4.94737H3.44444V13.6316C3.44444 14.2597 3.59367 14.5558 4 15C4.40633 15.4442 4.92536 15.5 5.5 15.5H11.2778C11.8524 15.5 12.5937 15.4442 13 15C13.4063 14.5558 13.5556 14.2597 13.5556 13.6316V4.94737H14.2778C14.4693 4.94737 14.653 4.86419 14.7885 4.71614C14.9239 4.56808 15 4.36728 15 4.15789C15 3.94851 14.9239 3.74771 14.7885 3.59965C14.653 3.4516 14.4693 3.36842 14.2778 3.36842H12.1111ZM10.6667 2.2613H6.33333V3.36842H10.6667V2.2613ZM12.5 4.71614H4.61201V13.6316C4.61201 13.841 4.61853 14.0418 4.75397 14.1898C4.88941 14.3379 5.30845 14.5 5.5 14.5H11.5C11.6915 14.5 12.1831 14.3379 12.3186 14.1898C12.454 14.0418 12.5 13.841 12.5 13.6316V4.71614Z" fill="white"/>
<path d="M6.33398 6.52344H7.5V12.8392H6.33398V6.52344ZM9.5 6.52344H10.6673V12.8392H9.5V6.52344Z" fill="#1F5E72"/>
</svg>
