<svg width="18" height="18" viewBox="0 0 18 18" fill="none" xmlns="http://www.w3.org/2000/svg">
<g clip-path="url(#clip0_3366_6176)">
<path d="M16.6271 4.35281L13.8049 1.51627C13.6185 1.33072 13.3661 1.22656 13.103 1.22656C12.8399 1.22656 12.5876 1.33072 12.4011 1.51627L2.39628 11.5066L1.48282 15.449C1.45131 15.5931 1.45239 15.7424 1.48598 15.886C1.51957 16.0297 1.58483 16.164 1.67699 16.2792C1.76914 16.3944 1.88586 16.4875 2.01863 16.5518C2.15139 16.6162 2.29684 16.65 2.44436 16.6509C2.51309 16.6578 2.58235 16.6578 2.65109 16.6509L6.63667 15.7374L16.6271 5.75665C16.8126 5.57016 16.9168 5.3178 16.9168 5.05473C16.9168 4.79166 16.8126 4.53929 16.6271 4.35281ZM6.1559 14.872L2.42032 15.6557L3.27128 11.9922L10.7569 4.5355L13.6415 7.42011L6.1559 14.872ZM14.2857 6.723L11.4011 3.83838L13.0742 2.17492L15.9107 5.05954L14.2857 6.723Z" fill="white"/>
</g>
<defs>
<clipPath id="clip0_3366_6176">
<rect width="17.3077" height="17.3077" fill="white" transform="translate(0.34375 0.351562)"/>
</clipPath>
</defs>
</svg>
