<svg width="20" height="20" viewBox="0 0 20 20" fill="none" xmlns="http://www.w3.org/2000/svg">
<path d="M6.71 5.71L9 3.41V13C9 13.2652 9.10536 13.5196 9.29289 13.7071C9.48043 13.8946 9.73478 14 10 14C10.2652 14 10.5196 13.8946 10.7071 13.7071C10.8946 13.5196 11 13.2652 11 13V3.41L13.29 5.71C13.383 5.80373 13.4936 5.87813 13.6154 5.92889C13.7373 5.97966 13.868 6.0058 14 6.0058C14.132 6.0058 14.2627 5.97966 14.3846 5.92889C14.5064 5.87813 14.617 5.80373 14.71 5.71C14.8037 5.61704 14.8781 5.50644 14.9289 5.38458C14.9797 5.26272 15.0058 5.13202 15.0058 5C15.0058 4.86799 14.9797 4.73729 14.9289 4.61543C14.8781 4.49357 14.8037 4.38297 14.71 4.29L10.71 0.290003C10.6149 0.198963 10.5028 0.127598 10.38 0.0800031C10.1365 -0.0200149 9.86346 -0.0200149 9.62 0.0800031C9.49725 0.127598 9.3851 0.198963 9.29 0.290003L5.29 4.29C5.19676 4.38324 5.1228 4.49393 5.07234 4.61575C5.02188 4.73758 4.99591 4.86814 4.99591 5C4.99591 5.13186 5.02188 5.26243 5.07234 5.38425C5.1228 5.50607 5.19676 5.61677 5.29 5.71C5.38324 5.80324 5.49393 5.8772 5.61575 5.92766C5.73757 5.97812 5.86814 6.00409 6 6.00409C6.13186 6.00409 6.26243 5.97812 6.38425 5.92766C6.50607 5.8772 6.61676 5.80324 6.71 5.71ZM19 12C18.7348 12 18.4804 12.1054 18.2929 12.2929C18.1054 12.4804 18 12.7348 18 13V17C18 17.2652 17.8946 17.5196 17.7071 17.7071C17.5196 17.8946 17.2652 18 17 18H3C2.73478 18 2.48043 17.8946 2.29289 17.7071C2.10536 17.5196 2 17.2652 2 17V13C2 12.7348 1.89464 12.4804 1.70711 12.2929C1.51957 12.1054 1.26522 12 1 12C0.734784 12 0.48043 12.1054 0.292893 12.2929C0.105357 12.4804 0 12.7348 0 13V17C0 17.7957 0.316071 18.5587 0.87868 19.1213C1.44129 19.6839 2.20435 20 3 20H17C17.7956 20 18.5587 19.6839 19.1213 19.1213C19.6839 18.5587 20 17.7957 20 17V13C20 12.7348 19.8946 12.4804 19.7071 12.2929C19.5196 12.1054 19.2652 12 19 12Z" fill="lightgray"/>
</svg>
